<?xml version="1.0" encoding="UTF-8"?>
<svg id="_レイヤー_2" data-name="レイヤー 2" xmlns="http://www.w3.org/2000/svg" viewBox="0 0 167.71 90.07">
  <defs>
    <style>
      .cls-1 {
        fill: #fff;
      }

      .cls-2 {
        fill: #9b9b9b;
      }

      .cls-3 {
        fill: none;
        stroke: #fff;
        stroke-linecap: round;
        stroke-linejoin: round;
        stroke-width: 1.02px;
      }
    </style>
  </defs>
  <g id="_レイヤー_1-2" data-name="レイヤー 1">
    <g>
      <rect class="cls-2" x="44.52" width="123.18" height="70.87"/>
      <g>
        <path class="cls-2" d="m113.66,74.67h-60.1c-.42,0-.77-.34-.77-.77s.34-.77.77-.77h60.1c.42,0,.77.34.77.77s-.34.77-.77.77Z"/>
        <path class="cls-2" d="m113.66,78.17h-60.1c-.42,0-.77-.34-.77-.77s.34-.77.77-.77h60.1c.42,0,.77.34.77.77s-.34.77-.77.77Z"/>
        <rect class="cls-2" x="29.72" y="70.94" width="54.24" height="9.45"/>
        <line class="cls-3" x1="37" y1="75.47" x2="64.76" y2="75.47"/>
        <rect class="cls-2" x="113.27" y="70.94" width="41.66" height="9.45"/>
        <g>
          <circle cx="126.63" cy="81.65" r="8.42"/>
          <circle class="cls-1" cx="126.63" cy="81.63" r="3.89"/>
        </g>
        <g>
          <circle cx="143.58" cy="81.65" r="8.42"/>
          <circle class="cls-1" cx="143.58" cy="81.63" r="3.89"/>
        </g>
        <polygon class="cls-2" points="5.59 34.61 .26 54.27 0 80.53 36.34 80.53 36.34 34.44 5.59 34.61"/>
        <polyline class="cls-3" points="1.4 71.48 11.18 71.48 15.17 67.95 35.09 67.95"/>
        <line class="cls-3" x1="4.54" y1="41.99" x2="35.19" y2="41.99"/>
        <polygon class="cls-1" points="4.67 43.71 1.66 54.84 1.63 57.9 19.21 57.72 19.26 43.88 4.67 43.71"/>
        <g>
          <circle cx="19.8" cy="81.65" r="8.42"/>
          <circle class="cls-1" cx="19.8" cy="81.63" r="3.89"/>
        </g>
        <g>
          <circle cx="70.83" cy="81.65" r="8.42"/>
          <circle class="cls-1" cx="70.83" cy="81.63" r="3.89"/>
        </g>
        <rect class="cls-2" x="164.91" y="66.82" width="2.8" height="13.71"/>
        <rect class="cls-2" x="35.19" y="66.82" width="132.52" height="4.66"/>
      </g>
    </g>
  </g>
</svg>